<mxfile host="Electron" agent="Mozilla/5.0 (Windows NT 10.0; Win64; x64) AppleWebKit/537.36 (KHTML, like Gecko) draw.io/24.7.17 Chrome/128.0.6613.36 Electron/32.0.1 Safari/537.36" version="24.7.17" pages="3">
  <diagram id="C5RBs43oDa-KdzZeNtuy" name="Exercise 1">
    <mxGraphModel dx="472" dy="820" grid="1" gridSize="10" guides="1" tooltips="1" connect="1" arrows="1" fold="1" page="1" pageScale="1" pageWidth="827" pageHeight="1169" math="0" shadow="0">
      <root>
        <mxCell id="WIyWlLk6GJQsqaUBKTNV-0" />
        <mxCell id="WIyWlLk6GJQsqaUBKTNV-1" parent="WIyWlLk6GJQsqaUBKTNV-0" />
        <mxCell id="lEEypS5AeBbEWRAZQjM4-0" value="&lt;b&gt;&lt;font style=&quot;font-size: 13px;&quot;&gt;start&lt;/font&gt;&lt;/b&gt;&lt;div&gt;&amp;nbsp;&lt;br&gt;&lt;br&gt;input MilesTraveled&lt;/div&gt;&lt;div&gt;input GallonsOfGasUsed&lt;/div&gt;&lt;div&gt;MilesPerGallon = MilesTraveled / GallonsOfGasUsed&lt;br&gt;    output MilesPerGallon&lt;/div&gt;&lt;div&gt;&amp;nbsp;&lt;br&gt;&lt;b&gt;&lt;font style=&quot;font-size: 13px;&quot;&gt;stop&lt;/font&gt;&lt;/b&gt;&lt;/div&gt;" style="text;whiteSpace=wrap;html=1;" parent="WIyWlLk6GJQsqaUBKTNV-1" vertex="1">
          <mxGeometry x="414" y="350" width="320" height="140" as="geometry" />
        </mxCell>
        <mxCell id="lEEypS5AeBbEWRAZQjM4-18" value="" style="edgeStyle=orthogonalEdgeStyle;rounded=0;orthogonalLoop=1;jettySize=auto;html=1;" parent="WIyWlLk6GJQsqaUBKTNV-1" source="lEEypS5AeBbEWRAZQjM4-1" target="lEEypS5AeBbEWRAZQjM4-3" edge="1">
          <mxGeometry relative="1" as="geometry" />
        </mxCell>
        <mxCell id="lEEypS5AeBbEWRAZQjM4-1" value="Start" style="ellipse;whiteSpace=wrap;html=1;" parent="WIyWlLk6GJQsqaUBKTNV-1" vertex="1">
          <mxGeometry x="175" y="90" width="120" height="80" as="geometry" />
        </mxCell>
        <mxCell id="lEEypS5AeBbEWRAZQjM4-2" value="Stop" style="ellipse;whiteSpace=wrap;html=1;" parent="WIyWlLk6GJQsqaUBKTNV-1" vertex="1">
          <mxGeometry x="175" y="630" width="120" height="80" as="geometry" />
        </mxCell>
        <mxCell id="lEEypS5AeBbEWRAZQjM4-11" value="" style="edgeStyle=orthogonalEdgeStyle;rounded=0;orthogonalLoop=1;jettySize=auto;html=1;" parent="WIyWlLk6GJQsqaUBKTNV-1" source="lEEypS5AeBbEWRAZQjM4-3" target="lEEypS5AeBbEWRAZQjM4-4" edge="1">
          <mxGeometry relative="1" as="geometry" />
        </mxCell>
        <mxCell id="lEEypS5AeBbEWRAZQjM4-3" value="input&lt;div&gt;&amp;nbsp;milesTraveled&lt;/div&gt;" style="shape=parallelogram;perimeter=parallelogramPerimeter;whiteSpace=wrap;html=1;fixedSize=1;" parent="WIyWlLk6GJQsqaUBKTNV-1" vertex="1">
          <mxGeometry x="160" y="210" width="150" height="60" as="geometry" />
        </mxCell>
        <mxCell id="lEEypS5AeBbEWRAZQjM4-12" value="" style="edgeStyle=orthogonalEdgeStyle;rounded=0;orthogonalLoop=1;jettySize=auto;html=1;" parent="WIyWlLk6GJQsqaUBKTNV-1" source="lEEypS5AeBbEWRAZQjM4-4" target="lEEypS5AeBbEWRAZQjM4-5" edge="1">
          <mxGeometry relative="1" as="geometry" />
        </mxCell>
        <mxCell id="lEEypS5AeBbEWRAZQjM4-4" value="&lt;br&gt;&lt;span style=&quot;color: rgb(0, 0, 0); font-family: Helvetica; font-size: 12px; font-style: normal; font-variant-ligatures: normal; font-variant-caps: normal; font-weight: 400; letter-spacing: normal; orphans: 2; text-align: left; text-indent: 0px; text-transform: none; widows: 2; word-spacing: 0px; -webkit-text-stroke-width: 0px; white-space: normal; background-color: rgb(251, 251, 251); text-decoration-thickness: initial; text-decoration-style: initial; text-decoration-color: initial; display: inline !important; float: none;&quot;&gt;input&amp;nbsp;&lt;/span&gt;&lt;div&gt;&lt;span style=&quot;color: rgb(0, 0, 0); font-family: Helvetica; font-size: 12px; font-style: normal; font-variant-ligatures: normal; font-variant-caps: normal; font-weight: 400; letter-spacing: normal; orphans: 2; text-align: left; text-indent: 0px; text-transform: none; widows: 2; word-spacing: 0px; -webkit-text-stroke-width: 0px; white-space: normal; background-color: rgb(251, 251, 251); text-decoration-thickness: initial; text-decoration-style: initial; text-decoration-color: initial; display: inline !important; float: none;&quot;&gt;GallonsOfGasUsed&lt;/span&gt;&lt;br&gt;&lt;br&gt;&lt;/div&gt;" style="shape=parallelogram;perimeter=parallelogramPerimeter;whiteSpace=wrap;html=1;fixedSize=1;" parent="WIyWlLk6GJQsqaUBKTNV-1" vertex="1">
          <mxGeometry x="160" y="320" width="150" height="60" as="geometry" />
        </mxCell>
        <mxCell id="lEEypS5AeBbEWRAZQjM4-13" value="" style="edgeStyle=orthogonalEdgeStyle;rounded=0;orthogonalLoop=1;jettySize=auto;html=1;" parent="WIyWlLk6GJQsqaUBKTNV-1" source="lEEypS5AeBbEWRAZQjM4-5" target="lEEypS5AeBbEWRAZQjM4-6" edge="1">
          <mxGeometry relative="1" as="geometry" />
        </mxCell>
        <mxCell id="lEEypS5AeBbEWRAZQjM4-5" value="&lt;br&gt;&lt;span style=&quot;color: rgb(0, 0, 0); font-family: Helvetica; font-size: 12px; font-style: normal; font-variant-ligatures: normal; font-variant-caps: normal; font-weight: 400; letter-spacing: normal; orphans: 2; text-align: left; text-indent: 0px; text-transform: none; widows: 2; word-spacing: 0px; -webkit-text-stroke-width: 0px; white-space: normal; background-color: rgb(251, 251, 251); text-decoration-thickness: initial; text-decoration-style: initial; text-decoration-color: initial; display: inline !important; float: none;&quot;&gt;MilesPerGallon = MilesTraveled / GallonsOfGasUsed&lt;/span&gt;&lt;div&gt;&lt;br/&gt;&lt;/div&gt;" style="rounded=0;whiteSpace=wrap;html=1;" parent="WIyWlLk6GJQsqaUBKTNV-1" vertex="1">
          <mxGeometry x="160" y="410" width="150" height="70" as="geometry" />
        </mxCell>
        <mxCell id="lEEypS5AeBbEWRAZQjM4-14" value="" style="edgeStyle=orthogonalEdgeStyle;rounded=0;orthogonalLoop=1;jettySize=auto;html=1;" parent="WIyWlLk6GJQsqaUBKTNV-1" source="lEEypS5AeBbEWRAZQjM4-6" target="lEEypS5AeBbEWRAZQjM4-2" edge="1">
          <mxGeometry relative="1" as="geometry" />
        </mxCell>
        <mxCell id="lEEypS5AeBbEWRAZQjM4-6" value="&lt;br&gt;&lt;span style=&quot;color: rgb(0, 0, 0); font-family: Helvetica; font-size: 12px; font-style: normal; font-variant-ligatures: normal; font-variant-caps: normal; font-weight: 400; letter-spacing: normal; orphans: 2; text-align: left; text-indent: 0px; text-transform: none; widows: 2; word-spacing: 0px; -webkit-text-stroke-width: 0px; white-space: normal; background-color: rgb(251, 251, 251); text-decoration-thickness: initial; text-decoration-style: initial; text-decoration-color: initial; display: inline !important; float: none;&quot;&gt;output&amp;nbsp;&lt;/span&gt;&lt;div&gt;&lt;span style=&quot;color: rgb(0, 0, 0); font-family: Helvetica; font-size: 12px; font-style: normal; font-variant-ligatures: normal; font-variant-caps: normal; font-weight: 400; letter-spacing: normal; orphans: 2; text-align: left; text-indent: 0px; text-transform: none; widows: 2; word-spacing: 0px; -webkit-text-stroke-width: 0px; white-space: normal; background-color: rgb(251, 251, 251); text-decoration-thickness: initial; text-decoration-style: initial; text-decoration-color: initial; display: inline !important; float: none;&quot;&gt;MilesPerGallon&lt;/span&gt;&lt;br&gt;&lt;br&gt;&lt;/div&gt;" style="shape=parallelogram;perimeter=parallelogramPerimeter;whiteSpace=wrap;html=1;fixedSize=1;" parent="WIyWlLk6GJQsqaUBKTNV-1" vertex="1">
          <mxGeometry x="160" y="524.5" width="150" height="60" as="geometry" />
        </mxCell>
        <mxCell id="lEEypS5AeBbEWRAZQjM4-19" value="" style="endArrow=classic;html=1;rounded=0;exitX=0;exitY=0;exitDx=0;exitDy=0;entryX=1;entryY=0.5;entryDx=0;entryDy=0;" parent="WIyWlLk6GJQsqaUBKTNV-1" source="lEEypS5AeBbEWRAZQjM4-0" target="lEEypS5AeBbEWRAZQjM4-1" edge="1">
          <mxGeometry width="50" height="50" relative="1" as="geometry">
            <mxPoint x="250" y="450" as="sourcePoint" />
            <mxPoint x="300" y="400" as="targetPoint" />
          </mxGeometry>
        </mxCell>
        <mxCell id="lEEypS5AeBbEWRAZQjM4-21" style="edgeStyle=orthogonalEdgeStyle;rounded=0;orthogonalLoop=1;jettySize=auto;html=1;" parent="WIyWlLk6GJQsqaUBKTNV-1" source="lEEypS5AeBbEWRAZQjM4-0" target="lEEypS5AeBbEWRAZQjM4-0" edge="1">
          <mxGeometry relative="1" as="geometry" />
        </mxCell>
        <mxCell id="lEEypS5AeBbEWRAZQjM4-31" value="" style="endArrow=classic;html=1;rounded=0;exitX=0;exitY=1;exitDx=0;exitDy=0;entryX=0.942;entryY=0.188;entryDx=0;entryDy=0;entryPerimeter=0;" parent="WIyWlLk6GJQsqaUBKTNV-1" source="lEEypS5AeBbEWRAZQjM4-0" target="lEEypS5AeBbEWRAZQjM4-2" edge="1">
          <mxGeometry width="50" height="50" relative="1" as="geometry">
            <mxPoint x="340" y="450" as="sourcePoint" />
            <mxPoint x="390" y="400" as="targetPoint" />
          </mxGeometry>
        </mxCell>
        <mxCell id="lEEypS5AeBbEWRAZQjM4-32" value="" style="endArrow=classic;html=1;rounded=0;entryX=1;entryY=0.75;entryDx=0;entryDy=0;exitX=0;exitY=0.357;exitDx=0;exitDy=0;exitPerimeter=0;" parent="WIyWlLk6GJQsqaUBKTNV-1" source="lEEypS5AeBbEWRAZQjM4-0" target="lEEypS5AeBbEWRAZQjM4-3" edge="1">
          <mxGeometry width="50" height="50" relative="1" as="geometry">
            <mxPoint x="340" y="450" as="sourcePoint" />
            <mxPoint x="390" y="400" as="targetPoint" />
          </mxGeometry>
        </mxCell>
        <mxCell id="lEEypS5AeBbEWRAZQjM4-33" value="" style="endArrow=classic;html=1;rounded=0;entryX=1;entryY=0;entryDx=0;entryDy=0;exitX=0;exitY=0.75;exitDx=0;exitDy=0;" parent="WIyWlLk6GJQsqaUBKTNV-1" source="lEEypS5AeBbEWRAZQjM4-0" target="lEEypS5AeBbEWRAZQjM4-6" edge="1">
          <mxGeometry width="50" height="50" relative="1" as="geometry">
            <mxPoint x="340" y="450" as="sourcePoint" />
            <mxPoint x="390" y="400" as="targetPoint" />
          </mxGeometry>
        </mxCell>
        <mxCell id="lEEypS5AeBbEWRAZQjM4-34" value="" style="endArrow=classic;html=1;rounded=0;entryX=1;entryY=0.25;entryDx=0;entryDy=0;exitX=0;exitY=0.5;exitDx=0;exitDy=0;" parent="WIyWlLk6GJQsqaUBKTNV-1" source="lEEypS5AeBbEWRAZQjM4-0" target="lEEypS5AeBbEWRAZQjM4-4" edge="1">
          <mxGeometry width="50" height="50" relative="1" as="geometry">
            <mxPoint x="380" y="410" as="sourcePoint" />
            <mxPoint x="390" y="400" as="targetPoint" />
          </mxGeometry>
        </mxCell>
        <mxCell id="lEEypS5AeBbEWRAZQjM4-35" value="" style="endArrow=classic;html=1;rounded=0;exitX=-0.009;exitY=0.607;exitDx=0;exitDy=0;exitPerimeter=0;entryX=1;entryY=0.5;entryDx=0;entryDy=0;" parent="WIyWlLk6GJQsqaUBKTNV-1" source="lEEypS5AeBbEWRAZQjM4-0" target="lEEypS5AeBbEWRAZQjM4-5" edge="1">
          <mxGeometry width="50" height="50" relative="1" as="geometry">
            <mxPoint x="340" y="450" as="sourcePoint" />
            <mxPoint x="390" y="400" as="targetPoint" />
          </mxGeometry>
        </mxCell>
      </root>
    </mxGraphModel>
  </diagram>
  <diagram id="jvtFQqX_A2Xk4fnHITa1" name="Exercise 2">
    <mxGraphModel dx="472" dy="820" grid="1" gridSize="10" guides="1" tooltips="1" connect="1" arrows="1" fold="1" page="1" pageScale="1" pageWidth="850" pageHeight="1100" math="0" shadow="0">
      <root>
        <mxCell id="0" />
        <mxCell id="1" parent="0" />
        <mxCell id="jDSrS_d8HEj5ic_qQNBv-1" value="" style="edgeStyle=orthogonalEdgeStyle;rounded=0;orthogonalLoop=1;jettySize=auto;html=1;" edge="1" parent="1" source="jDSrS_d8HEj5ic_qQNBv-2" target="jDSrS_d8HEj5ic_qQNBv-7">
          <mxGeometry relative="1" as="geometry" />
        </mxCell>
        <mxCell id="jDSrS_d8HEj5ic_qQNBv-2" value="Start" style="ellipse;whiteSpace=wrap;html=1;" vertex="1" parent="1">
          <mxGeometry x="40" y="100" width="120" height="80" as="geometry" />
        </mxCell>
        <mxCell id="jDSrS_d8HEj5ic_qQNBv-3" value="Stop" style="ellipse;whiteSpace=wrap;html=1;" vertex="1" parent="1">
          <mxGeometry x="40" y="520" width="120" height="80" as="geometry" />
        </mxCell>
        <mxCell id="jDSrS_d8HEj5ic_qQNBv-4" value="" style="edgeStyle=orthogonalEdgeStyle;rounded=0;orthogonalLoop=1;jettySize=auto;html=1;" edge="1" parent="1" source="jDSrS_d8HEj5ic_qQNBv-5" target="jDSrS_d8HEj5ic_qQNBv-3">
          <mxGeometry relative="1" as="geometry" />
        </mxCell>
        <mxCell id="jDSrS_d8HEj5ic_qQNBv-5" value="output rent" style="shape=parallelogram;perimeter=parallelogramPerimeter;whiteSpace=wrap;html=1;fixedSize=1;" vertex="1" parent="1">
          <mxGeometry x="40" y="420" width="120" height="60" as="geometry" />
        </mxCell>
        <mxCell id="jDSrS_d8HEj5ic_qQNBv-6" value="" style="edgeStyle=orthogonalEdgeStyle;rounded=0;orthogonalLoop=1;jettySize=auto;html=1;" edge="1" parent="1" source="jDSrS_d8HEj5ic_qQNBv-7">
          <mxGeometry relative="1" as="geometry">
            <mxPoint x="100" y="320" as="targetPoint" />
          </mxGeometry>
        </mxCell>
        <mxCell id="jDSrS_d8HEj5ic_qQNBv-7" value="input rent" style="shape=parallelogram;perimeter=parallelogramPerimeter;whiteSpace=wrap;html=1;fixedSize=1;" vertex="1" parent="1">
          <mxGeometry x="40" y="220" width="120" height="60" as="geometry" />
        </mxCell>
        <mxCell id="jDSrS_d8HEj5ic_qQNBv-8" value="" style="edgeStyle=orthogonalEdgeStyle;rounded=0;orthogonalLoop=1;jettySize=auto;html=1;" edge="1" parent="1" source="jDSrS_d8HEj5ic_qQNBv-9" target="jDSrS_d8HEj5ic_qQNBv-5">
          <mxGeometry relative="1" as="geometry" />
        </mxCell>
        <mxCell id="jDSrS_d8HEj5ic_qQNBv-9" value="&lt;span style=&quot;line-height: 115%;&quot;&gt;&lt;font style=&quot;font-size: 12px;&quot;&gt;costPerDay =&lt;/font&gt;&lt;/span&gt;&lt;div&gt;&lt;span style=&quot;line-height: 115%;&quot;&gt;&lt;font style=&quot;font-size: 12px;&quot;&gt;&amp;nbsp;rent / 30&lt;/font&gt;&lt;/span&gt;&lt;/div&gt;" style="rounded=0;whiteSpace=wrap;html=1;" vertex="1" parent="1">
          <mxGeometry x="40" y="320" width="120" height="60" as="geometry" />
        </mxCell>
        <mxCell id="jDSrS_d8HEj5ic_qQNBv-10" value="" style="edgeStyle=orthogonalEdgeStyle;rounded=0;orthogonalLoop=1;jettySize=auto;html=1;" edge="1" parent="1" source="jDSrS_d8HEj5ic_qQNBv-11" target="jDSrS_d8HEj5ic_qQNBv-9">
          <mxGeometry relative="1" as="geometry" />
        </mxCell>
        <mxCell id="jDSrS_d8HEj5ic_qQNBv-11" value="&lt;font style=&quot;font-size: 14px;&quot;&gt;&lt;b&gt;start&lt;/b&gt;&lt;/font&gt;&lt;div&gt;&amp;nbsp;&lt;/div&gt;&lt;div&gt;input rent&lt;br&gt;costPerDay = rent / 30&lt;br&gt;output rent&lt;/div&gt;&lt;div&gt;&amp;nbsp;&lt;br&gt;&lt;b&gt;&lt;font style=&quot;font-size: 14px;&quot;&gt;stop&lt;/font&gt;&lt;/b&gt;&lt;/div&gt;" style="text;whiteSpace=wrap;html=1;" vertex="1" parent="1">
          <mxGeometry x="260" y="295" width="150" height="110" as="geometry" />
        </mxCell>
        <mxCell id="jDSrS_d8HEj5ic_qQNBv-12" value="" style="endArrow=classic;html=1;rounded=0;exitX=0;exitY=0;exitDx=0;exitDy=0;entryX=1;entryY=0.5;entryDx=0;entryDy=0;" edge="1" parent="1" source="jDSrS_d8HEj5ic_qQNBv-11" target="jDSrS_d8HEj5ic_qQNBv-2">
          <mxGeometry width="50" height="50" relative="1" as="geometry">
            <mxPoint x="220" y="460" as="sourcePoint" />
            <mxPoint x="270" y="410" as="targetPoint" />
          </mxGeometry>
        </mxCell>
        <mxCell id="jDSrS_d8HEj5ic_qQNBv-13" value="" style="endArrow=classic;html=1;rounded=0;entryX=1;entryY=0.375;entryDx=0;entryDy=0;entryPerimeter=0;exitX=0;exitY=1;exitDx=0;exitDy=0;" edge="1" parent="1" source="jDSrS_d8HEj5ic_qQNBv-11" target="jDSrS_d8HEj5ic_qQNBv-3">
          <mxGeometry width="50" height="50" relative="1" as="geometry">
            <mxPoint x="220" y="460" as="sourcePoint" />
            <mxPoint x="270" y="410" as="targetPoint" />
          </mxGeometry>
        </mxCell>
        <mxCell id="jDSrS_d8HEj5ic_qQNBv-14" value="" style="endArrow=classic;html=1;rounded=0;entryX=1;entryY=0.25;entryDx=0;entryDy=0;exitX=0;exitY=0.336;exitDx=0;exitDy=0;exitPerimeter=0;" edge="1" parent="1" source="jDSrS_d8HEj5ic_qQNBv-11" target="jDSrS_d8HEj5ic_qQNBv-7">
          <mxGeometry width="50" height="50" relative="1" as="geometry">
            <mxPoint x="240" y="330" as="sourcePoint" />
            <mxPoint x="270" y="410" as="targetPoint" />
          </mxGeometry>
        </mxCell>
        <mxCell id="jDSrS_d8HEj5ic_qQNBv-15" value="" style="endArrow=classic;html=1;rounded=0;entryX=1;entryY=0.5;entryDx=0;entryDy=0;exitX=0;exitY=0.673;exitDx=0;exitDy=0;exitPerimeter=0;" edge="1" parent="1" source="jDSrS_d8HEj5ic_qQNBv-11" target="jDSrS_d8HEj5ic_qQNBv-5">
          <mxGeometry width="50" height="50" relative="1" as="geometry">
            <mxPoint x="220" y="460" as="sourcePoint" />
            <mxPoint x="270" y="410" as="targetPoint" />
          </mxGeometry>
        </mxCell>
      </root>
    </mxGraphModel>
  </diagram>
  <diagram id="LLT4rWqpPwgD1JJeN6hs" name="Exercise 3">
    <mxGraphModel dx="555" dy="965" grid="1" gridSize="10" guides="1" tooltips="1" connect="1" arrows="1" fold="1" page="1" pageScale="1" pageWidth="850" pageHeight="1100" math="0" shadow="0">
      <root>
        <mxCell id="0" />
        <mxCell id="1" parent="0" />
        <mxCell id="kg6YQT5oPNjiyIAHrQ58-1" value="&lt;b&gt;&lt;font style=&quot;font-size: 13px;&quot;&gt;Start&lt;/font&gt;&lt;/b&gt;" style="ellipse;whiteSpace=wrap;html=1;" vertex="1" parent="1">
          <mxGeometry x="40" y="40" width="120" height="80" as="geometry" />
        </mxCell>
        <mxCell id="kg6YQT5oPNjiyIAHrQ58-2" value="&lt;b&gt;&lt;font style=&quot;font-size: 13px;&quot;&gt;Stop&lt;/font&gt;&lt;/b&gt;" style="ellipse;whiteSpace=wrap;html=1;" vertex="1" parent="1">
          <mxGeometry x="40" y="970" width="120" height="80" as="geometry" />
        </mxCell>
        <mxCell id="kg6YQT5oPNjiyIAHrQ58-3" value="input pay" style="shape=parallelogram;perimeter=parallelogramPerimeter;whiteSpace=wrap;html=1;fixedSize=1;" vertex="1" parent="1">
          <mxGeometry x="40" y="160" width="120" height="60" as="geometry" />
        </mxCell>
        <mxCell id="kg6YQT5oPNjiyIAHrQ58-4" value="input rent" style="shape=parallelogram;perimeter=parallelogramPerimeter;whiteSpace=wrap;html=1;fixedSize=1;" vertex="1" parent="1">
          <mxGeometry x="40" y="250" width="120" height="60" as="geometry" />
        </mxCell>
        <mxCell id="kg6YQT5oPNjiyIAHrQ58-5" value="input utilities" style="shape=parallelogram;perimeter=parallelogramPerimeter;whiteSpace=wrap;html=1;fixedSize=1;" vertex="1" parent="1">
          <mxGeometry x="40" y="340" width="120" height="60" as="geometry" />
        </mxCell>
        <mxCell id="kg6YQT5oPNjiyIAHrQ58-6" value="input&lt;div&gt;&amp;nbsp;groceries&lt;/div&gt;" style="shape=parallelogram;perimeter=parallelogramPerimeter;whiteSpace=wrap;html=1;fixedSize=1;" vertex="1" parent="1">
          <mxGeometry x="40" y="430" width="120" height="60" as="geometry" />
        </mxCell>
        <mxCell id="kg6YQT5oPNjiyIAHrQ58-7" value="&lt;span style=&quot;line-height: 115%; font-family: &amp;quot;Times New Roman&amp;quot;, serif;&quot;&gt;totalBills &amp;nbsp;=&amp;nbsp;&lt;/span&gt;&lt;div&gt;&lt;span style=&quot;line-height: 115%; font-family: &amp;quot;Times New Roman&amp;quot;, serif;&quot;&gt;rent + utlilities +&lt;br&gt;groceries&lt;/span&gt;&lt;/div&gt;" style="rounded=0;whiteSpace=wrap;html=1;" vertex="1" parent="1">
          <mxGeometry x="40" y="520" width="120" height="60" as="geometry" />
        </mxCell>
        <mxCell id="kg6YQT5oPNjiyIAHrQ58-8" value="&lt;p style=&quot;margin-bottom:0in;line-height:normal&quot; class=&quot;MsoNormal&quot;&gt;&lt;span style=&quot;font-family: &amp;quot;Times New Roman&amp;quot;, serif;&quot;&gt;&lt;font style=&quot;font-size: 12px;&quot;&gt;discretionary =&lt;br/&gt;pay – totalBills&lt;/font&gt;&lt;span style=&quot;font-size: 16pt;&quot;&gt;&lt;/span&gt;&lt;/span&gt;&lt;/p&gt;" style="rounded=0;whiteSpace=wrap;html=1;" vertex="1" parent="1">
          <mxGeometry x="40" y="610" width="120" height="60" as="geometry" />
        </mxCell>
        <mxCell id="kg6YQT5oPNjiyIAHrQ58-9" value="output pay" style="shape=parallelogram;perimeter=parallelogramPerimeter;whiteSpace=wrap;html=1;fixedSize=1;" vertex="1" parent="1">
          <mxGeometry x="40" y="700" width="120" height="60" as="geometry" />
        </mxCell>
        <mxCell id="kg6YQT5oPNjiyIAHrQ58-10" value="output totalBills" style="shape=parallelogram;perimeter=parallelogramPerimeter;whiteSpace=wrap;html=1;fixedSize=1;" vertex="1" parent="1">
          <mxGeometry x="40" y="790" width="120" height="60" as="geometry" />
        </mxCell>
        <mxCell id="kg6YQT5oPNjiyIAHrQ58-11" value="output&lt;div&gt;discretionary&lt;/div&gt;" style="shape=parallelogram;perimeter=parallelogramPerimeter;whiteSpace=wrap;html=1;fixedSize=1;" vertex="1" parent="1">
          <mxGeometry x="40" y="880" width="120" height="60" as="geometry" />
        </mxCell>
        <mxCell id="kg6YQT5oPNjiyIAHrQ58-12" value="&lt;b&gt;&lt;font style=&quot;font-size: 14px;&quot;&gt;start&lt;/font&gt;&lt;/b&gt;&lt;div&gt;&amp;nbsp;&lt;br&gt;input pay&lt;br&gt;     input rent&lt;br&gt;     input utilities&lt;br&gt;input groceries&lt;br&gt;     totalBills  = rent + utlilities + groceries&lt;br&gt;     discretionary = pay – totalBills&lt;br&gt;     output pay&lt;br&gt;     output totalBills&lt;br&gt;     output discretionary&lt;div&gt;&lt;br&gt;&lt;b&gt;&lt;font style=&quot;font-size: 14px;&quot;&gt;stop&lt;/font&gt;&lt;/b&gt;&lt;/div&gt;&lt;/div&gt;" style="text;whiteSpace=wrap;html=1;" vertex="1" parent="1">
          <mxGeometry x="425" y="430" width="230" height="210" as="geometry" />
        </mxCell>
        <mxCell id="kg6YQT5oPNjiyIAHrQ58-13" value="" style="endArrow=classic;html=1;rounded=0;exitX=0.009;exitY=0.917;exitDx=0;exitDy=0;entryX=1;entryY=0.5;entryDx=0;entryDy=0;exitPerimeter=0;" edge="1" parent="1" source="kg6YQT5oPNjiyIAHrQ58-12" target="kg6YQT5oPNjiyIAHrQ58-2">
          <mxGeometry width="50" height="50" relative="1" as="geometry">
            <mxPoint x="300" y="700" as="sourcePoint" />
            <mxPoint x="350" y="650" as="targetPoint" />
          </mxGeometry>
        </mxCell>
        <mxCell id="kg6YQT5oPNjiyIAHrQ58-14" value="" style="endArrow=classic;html=1;rounded=0;exitX=0.009;exitY=0.064;exitDx=0;exitDy=0;entryX=1;entryY=0.5;entryDx=0;entryDy=0;exitPerimeter=0;" edge="1" parent="1" source="kg6YQT5oPNjiyIAHrQ58-12" target="kg6YQT5oPNjiyIAHrQ58-1">
          <mxGeometry width="50" height="50" relative="1" as="geometry">
            <mxPoint x="300" y="700" as="sourcePoint" />
            <mxPoint x="350" y="650" as="targetPoint" />
          </mxGeometry>
        </mxCell>
        <mxCell id="kg6YQT5oPNjiyIAHrQ58-15" value="" style="endArrow=classic;html=1;rounded=0;exitX=-0.009;exitY=0.814;exitDx=0;exitDy=0;exitPerimeter=0;entryX=1;entryY=0;entryDx=0;entryDy=0;" edge="1" parent="1" source="kg6YQT5oPNjiyIAHrQ58-12" target="kg6YQT5oPNjiyIAHrQ58-11">
          <mxGeometry width="50" height="50" relative="1" as="geometry">
            <mxPoint x="240" y="590" as="sourcePoint" />
            <mxPoint x="290" y="540" as="targetPoint" />
          </mxGeometry>
        </mxCell>
        <mxCell id="kg6YQT5oPNjiyIAHrQ58-16" value="" style="endArrow=classic;html=1;rounded=0;exitX=-0.017;exitY=0.705;exitDx=0;exitDy=0;exitPerimeter=0;entryX=1;entryY=0;entryDx=0;entryDy=0;" edge="1" parent="1" source="kg6YQT5oPNjiyIAHrQ58-12" target="kg6YQT5oPNjiyIAHrQ58-10">
          <mxGeometry width="50" height="50" relative="1" as="geometry">
            <mxPoint x="240" y="590" as="sourcePoint" />
            <mxPoint x="290" y="540" as="targetPoint" />
          </mxGeometry>
        </mxCell>
        <mxCell id="kg6YQT5oPNjiyIAHrQ58-17" value="" style="endArrow=classic;html=1;rounded=0;exitX=-0.004;exitY=0.648;exitDx=0;exitDy=0;exitPerimeter=0;entryX=1;entryY=0.75;entryDx=0;entryDy=0;" edge="1" parent="1" source="kg6YQT5oPNjiyIAHrQ58-12" target="kg6YQT5oPNjiyIAHrQ58-9">
          <mxGeometry width="50" height="50" relative="1" as="geometry">
            <mxPoint x="240" y="590" as="sourcePoint" />
            <mxPoint x="290" y="540" as="targetPoint" />
          </mxGeometry>
        </mxCell>
        <mxCell id="kg6YQT5oPNjiyIAHrQ58-18" value="" style="endArrow=classic;html=1;rounded=0;entryX=1.017;entryY=0.617;entryDx=0;entryDy=0;exitX=-0.017;exitY=0.567;exitDx=0;exitDy=0;exitPerimeter=0;entryPerimeter=0;" edge="1" parent="1" source="kg6YQT5oPNjiyIAHrQ58-12" target="kg6YQT5oPNjiyIAHrQ58-8">
          <mxGeometry width="50" height="50" relative="1" as="geometry">
            <mxPoint x="240" y="590" as="sourcePoint" />
            <mxPoint x="290" y="540" as="targetPoint" />
          </mxGeometry>
        </mxCell>
        <mxCell id="kg6YQT5oPNjiyIAHrQ58-19" value="" style="endArrow=classic;html=1;rounded=0;entryX=1;entryY=0.25;entryDx=0;entryDy=0;exitX=-0.002;exitY=0.163;exitDx=0;exitDy=0;exitPerimeter=0;" edge="1" parent="1" source="kg6YQT5oPNjiyIAHrQ58-12" target="kg6YQT5oPNjiyIAHrQ58-3">
          <mxGeometry width="50" height="50" relative="1" as="geometry">
            <mxPoint x="240" y="590" as="sourcePoint" />
            <mxPoint x="290" y="540" as="targetPoint" />
          </mxGeometry>
        </mxCell>
        <mxCell id="kg6YQT5oPNjiyIAHrQ58-20" value="" style="endArrow=classic;html=1;rounded=0;entryX=1;entryY=0.5;entryDx=0;entryDy=0;exitX=0;exitY=0.5;exitDx=0;exitDy=0;" edge="1" parent="1" source="kg6YQT5oPNjiyIAHrQ58-12" target="kg6YQT5oPNjiyIAHrQ58-7">
          <mxGeometry width="50" height="50" relative="1" as="geometry">
            <mxPoint x="240" y="590" as="sourcePoint" />
            <mxPoint x="290" y="540" as="targetPoint" />
          </mxGeometry>
        </mxCell>
        <mxCell id="kg6YQT5oPNjiyIAHrQ58-21" value="" style="endArrow=classic;html=1;rounded=0;exitX=-0.004;exitY=0.438;exitDx=0;exitDy=0;exitPerimeter=0;" edge="1" parent="1" source="kg6YQT5oPNjiyIAHrQ58-12" target="kg6YQT5oPNjiyIAHrQ58-6">
          <mxGeometry width="50" height="50" relative="1" as="geometry">
            <mxPoint x="240" y="590" as="sourcePoint" />
            <mxPoint x="290" y="540" as="targetPoint" />
          </mxGeometry>
        </mxCell>
        <mxCell id="kg6YQT5oPNjiyIAHrQ58-22" value="" style="endArrow=classic;html=1;rounded=0;entryX=1;entryY=0.25;entryDx=0;entryDy=0;exitX=-0.009;exitY=0.286;exitDx=0;exitDy=0;exitPerimeter=0;" edge="1" parent="1" source="kg6YQT5oPNjiyIAHrQ58-12" target="kg6YQT5oPNjiyIAHrQ58-4">
          <mxGeometry width="50" height="50" relative="1" as="geometry">
            <mxPoint x="240" y="590" as="sourcePoint" />
            <mxPoint x="290" y="540" as="targetPoint" />
          </mxGeometry>
        </mxCell>
        <mxCell id="kg6YQT5oPNjiyIAHrQ58-23" value="" style="endArrow=classic;html=1;rounded=0;entryX=1;entryY=0.25;entryDx=0;entryDy=0;exitX=0.004;exitY=0.357;exitDx=0;exitDy=0;exitPerimeter=0;" edge="1" parent="1" source="kg6YQT5oPNjiyIAHrQ58-12" target="kg6YQT5oPNjiyIAHrQ58-5">
          <mxGeometry width="50" height="50" relative="1" as="geometry">
            <mxPoint x="240" y="590" as="sourcePoint" />
            <mxPoint x="290" y="540" as="targetPoint" />
          </mxGeometry>
        </mxCell>
      </root>
    </mxGraphModel>
  </diagram>
</mxfile>
